<?xml version="1.0" encoding="UTF-8"?>
<svg version="1.1" xmlns="http://www.w3.org/2000/svg" width="1024" height="336">
<path d="M0 0 C51.48 0 102.96 0 156 0 C158.97 5.28 161.94 10.56 165 16 C183.13824945 38.50891197 209.46410005 45.31935836 236.6015625 51.921875 C268.16053733 59.61334634 298.63236358 68.26667287 322 92 C322.75539063 92.75796875 323.51078125 93.5159375 324.2890625 94.296875 C339.45652941 110.22525162 348.87069772 130.40017221 358.45410156 149.96923828 C359.11490723 151.31671143 359.11490723 151.31671143 359.7890625 152.69140625 C360.36068115 153.87198608 360.36068115 153.87198608 360.94384766 155.07641602 C361.96825963 157.15459801 361.96825963 157.15459801 364 159 C365.03092959 161.04721529 366.02491668 163.113104 367 165.1875 C380.00481909 191.92582644 400.04362795 213.75915091 428.20703125 224.1875 C450.25884031 231.18961798 474.90046672 227.35418749 495.24267578 216.96191406 C527.44435564 199.33554303 541.33182198 165.96424719 551.52474976 132.71994019 C552.69016879 128.9261704 553.87688524 125.13906019 555.0625 121.3515625 C555.42573616 120.19052254 555.42573616 120.19052254 555.79631042 119.00602722 C568.96914455 76.97685075 568.96914455 76.97685075 577 61 C577.37930664 60.23719727 577.75861328 59.47439453 578.14941406 58.68847656 C579.33342029 56.32527324 580.53569085 53.97276418 581.75 51.625 C582.11496582 50.91601562 582.47993164 50.20703125 582.85595703 49.4765625 C583.20770996 48.8165625 583.55946289 48.1565625 583.921875 47.4765625 C584.37965332 46.611521 584.37965332 46.611521 584.84667969 45.72900391 C586 44 586 44 590 40 C590 137.68 590 235.36 590 336 C558.629375 336.0825 527.25875 336.165 494.9375 336.25 C485.05031006 336.28641602 475.16312012 336.32283203 464.97631836 336.36035156 C452.85656738 336.37841797 452.85656738 336.37841797 447.17384338 336.3817749 C443.22441019 336.38548542 439.27519441 336.4004107 435.32582092 336.42230225 C430.27295243 336.44993531 425.22039569 336.45792865 420.16745865 336.4522891 C418.32254477 336.45346668 416.4776189 336.46128163 414.63277042 336.47686052 C400.38322216 336.59150721 387.43022545 335.01501183 374.625 328.1875 C373.95710449 327.84130615 373.28920898 327.4951123 372.60107422 327.13842773 C367.25491786 324.29368995 362.53120047 321.02868011 358 317 C357.16984375 316.27683594 356.3396875 315.55367188 355.484375 314.80859375 C348.02044195 308.20502424 341.06457061 301.52077055 335.125 293.5 C334.61106689 292.8100293 334.09713379 292.12005859 333.56762695 291.40917969 C328.92782011 285.08053217 324.86534526 278.48884342 320.97314453 271.68164062 C320.10041923 270.17352926 319.19112285 268.686721 318.27734375 267.203125 C313.72423907 259.75454714 310.06220102 251.95463057 306.33520508 244.0690918 C293.11048448 216.17527407 277.17422006 182.92786338 246.0625 171.6875 C234.20872956 168.06929932 222.55893535 167.98611301 211.25 173.5 C194.4155376 183.56197753 188.23237808 206.39061716 183.58349609 224.32324219 C181.94084978 230.86297621 180.37754935 237.42183031 178.82275391 243.98291016 C173.87937068 264.74939045 167.95784944 284.34168085 154 301 C153.40316406 301.79792969 152.80632813 302.59585937 152.19140625 303.41796875 C149.61897569 306.44894308 146.74831006 308.8820537 143.625 311.3125 C142.70569702 312.02817139 142.70569702 312.02817139 141.76782227 312.75830078 C117.77012146 331.03613596 89.24061012 337.07831711 59.56469727 333.17382812 C55.67911026 332.58322848 51.83927204 331.83823966 48 331 C46.92806396 330.76651855 46.92806396 330.76651855 45.83447266 330.52832031 C21.97537831 325.04133098 0.89004127 311.22448663 -12.625 290.6875 C-13.76949228 288.80336985 -14.89474591 286.90741249 -16 285 C-16.77150391 283.68128906 -16.77150391 283.68128906 -17.55859375 282.3359375 C-26.47252997 265.89724993 -29.68508055 246.54245682 -33.92895508 228.49438477 C-34.11720352 227.70109268 -34.30545197 226.9078006 -34.49940491 226.09046936 C-34.85533949 224.58914348 -35.20723908 223.08685325 -35.5544281 221.58348083 C-36.37186514 218.14603952 -37.28009373 215.09095929 -39 212 C-39.39803569 210.56870728 -39.77114053 209.13034952 -40.125 207.6875 C-41.5265722 202.8821096 -43.5526926 198.59966833 -45.875 194.1875 C-46.20268301 193.55352295 -46.53016602 192.9195459 -46.86767578 192.26635742 C-49.08126143 188.17279197 -51.63630414 185.26407421 -55 182 C-55 181.34 -55 180.68 -55 180 C-55.57234375 179.7215625 -56.1446875 179.443125 -56.734375 179.15625 C-58.96379883 178.01847508 -61.09468 176.77148374 -63.25 175.5 C-73.51382044 169.82392312 -83.73889966 169.87481092 -94.92578125 172.96875 C-127.78726776 183.99217114 -143.87454002 218.53551015 -159.29492188 246.88085938 C-164.18253869 255.8540577 -169.25350803 264.54516138 -175 273 C-175.4007373 273.59006836 -175.80147461 274.18013672 -176.21435547 274.78808594 C-181.11786726 281.96050107 -186.21895069 288.6701351 -192.1875 295.01171875 C-194.15610321 297.07099988 -194.15610321 297.07099988 -196 300 C-196.66 300 -197.32 300 -198 300 C-198.33 300.99 -198.66 301.98 -199 303 C-202.4395969 306.26594735 -206.24210726 309.11067681 -210 312 C-210.53882813 312.41765625 -211.07765625 312.8353125 -211.6328125 313.265625 C-231.02092877 328.15128773 -251.55233327 336.36197181 -276.18359375 336.24291992 C-278.07458046 336.24576744 -278.07458046 336.24576744 -280.00376892 336.24867249 C-283.43310151 336.25347641 -286.86230172 336.24591148 -290.29161835 336.23571944 C-293.93025008 336.22681619 -297.56887912 336.22869905 -301.20751953 336.2290802 C-307.34035389 336.22814589 -313.47313858 336.21951057 -319.60595703 336.20581055 C-326.59236198 336.19025641 -333.57871205 336.18480686 -340.56513309 336.1855461 C-348.11310874 336.18623571 -355.66106451 336.17919985 -363.20903397 336.1700995 C-365.92605802 336.16742665 -368.64308025 336.166857 -371.36010551 336.16686761 C-392.26665271 336.14609896 -413.08770357 335.58089712 -434 335 C-434 236.66 -434 138.32 -434 37 C-415.86099237 61.18534351 -408.46076362 94.70661409 -400.57641602 123.36669922 C-391.26107875 157.2059248 -378.76689527 193.17292692 -346.78515625 212.02734375 C-325.99555231 223.38865578 -301.18020772 225.6750577 -278.5 219.375 C-267.35102997 215.6355939 -256.88352349 210.44672866 -248.015625 202.6640625 C-246 201 -246 201 -243.796875 199.9609375 C-241.64263458 199.07364028 -241.64263458 199.07364028 -241 196 C-240.34 196 -239.68 196 -239 196 C-238.71125 195.401875 -238.4225 194.80375 -238.125 194.1875 C-237 192 -237 192 -235 189 C-234.34 189 -233.68 189 -233 189 C-232.77828125 188.48824219 -232.5565625 187.97648438 -232.328125 187.44921875 C-230.86133074 184.74427757 -229.09811897 182.34495319 -227.26904297 179.87573242 C-215.79621597 164.29282324 -206.92031501 147.10258816 -198.40795898 129.7722168 C-188.12808314 108.98013949 -174.19609135 90.25949215 -155 77 C-154.44779785 76.61602051 -153.8955957 76.23204102 -153.32666016 75.83642578 C-130.16206142 60.06836075 -101.51924041 54.35950129 -74.80949402 47.30284119 C-32.62124456 36.3601379 -32.62124456 36.3601379 -3 6 C-1.515 3.03 -1.515 3.03 0 0 Z " fill="#E2E2E2" transform="translate(434,0)"/>
<path d="M0 0 C0 0.66 0 1.32 0 2 C-12.01300091 7.49114982 -24.19275801 12.12162288 -37.60440063 12.12698364 C-38.69653366 12.12980347 -39.78866669 12.13262329 -40.91389465 12.13552856 C-42.09811508 12.13350433 -43.28233551 12.1314801 -44.50244141 12.12939453 C-45.76222305 12.13114685 -47.0220047 12.13289917 -48.31996155 12.13470459 C-51.77440241 12.13925933 -55.22881334 12.13749372 -58.68325472 12.1343255 C-62.33794002 12.13177533 -65.99262293 12.13414831 -69.64730835 12.13571167 C-75.81598359 12.13753255 -81.98464689 12.13513638 -88.15332031 12.13037109 C-94.41407047 12.12558904 -100.67479679 12.12549764 -106.93554688 12.13037109 C-174.01145396 12.18141181 -174.01145396 12.18141181 -203 11 C-203 10.34 -203 9.68 -203 9 C-201.68692934 9.00276538 -201.68692934 9.00276538 -200.347332 9.00558662 C-179.01279758 9.04982299 -157.6782711 9.08288443 -136.34370041 9.10362434 C-126.02631733 9.11392149 -115.70896494 9.12795189 -105.39160156 9.15087891 C-96.3953109 9.17086067 -87.39904247 9.18372778 -78.40273023 9.18817699 C-73.64261195 9.19077627 -68.88255725 9.19685302 -64.12245941 9.21146011 C-59.63439628 9.22511975 -55.1464224 9.22920583 -50.65834045 9.22621536 C-49.01856754 9.2267618 -47.37879138 9.230689 -45.73903656 9.23841095 C-30.38570587 9.30711527 -17.79779569 7.24218022 -3.8828125 0.76953125 C-2 0 -2 0 0 0 Z " fill="#EAEAE9" transform="translate(203,324)"/>
<path d="M0 0 C11.18596441 0.58873497 22.22492286 10.78450312 29.4140625 18.63671875 C31.68565607 21.37277905 33.85435482 24.16439829 36 27 C36.63164063 27.78246094 37.26328125 28.56492188 37.9140625 29.37109375 C47.63573225 41.87324106 54.62354285 56.66146156 61.1965332 71.00268555 C63.95252456 76.99889716 67.02503292 82.79334686 70.16796875 88.59375 C72.54540443 93.01405686 74.79385131 97.49224427 77 102 C71.22338483 100.07446161 68.6951643 92.24779065 66 87 C63.7113035 82.34769781 61.50073242 77.65873099 59.28588867 72.97094727 C46.22009544 45.3936019 30.49219128 12.60322323 0 1 C0 0.67 0 0.34 0 0 Z " fill="#EBEAE9" transform="translate(681,171)"/>
<path d="M0 0 C2 1 2 1 3.04296875 4.10546875 C3.42727451 5.46535897 3.8085763 6.8261003 4.1875 8.1875 C7.94205786 20.82496503 13.81738723 31.62410958 22 42 C22.94746094 43.25296875 22.94746094 43.25296875 23.9140625 44.53125 C27.69696734 49.00839581 32.37958489 52.42679435 37 56 C37.7115625 56.55042969 38.423125 57.10085938 39.15625 57.66796875 C46.12978901 62.67014192 54.11556314 65.73013539 62 69 C62 69.33 62 69.66 62 70 C56.21746131 69.5017656 51.96188801 67.86980364 46.875 65.125 C46.13580322 64.72861328 45.39660645 64.33222656 44.63500977 63.92382812 C22.74598157 51.74358597 8.512945 31.14233567 0.6640625 7.69140625 C0.0035415 5.01435349 -0.12950556 2.74452176 0 0 Z " fill="#EBEBEA" transform="translate(408,256)"/>
<path d="M0 0 C0 0.66 0 1.32 0 2 C-1.10794922 2.49306641 -1.10794922 2.49306641 -2.23828125 2.99609375 C-24.94329058 13.64177157 -37.24975861 33.45542913 -50 54 C-50.66 53.67 -51.32 53.34 -52 53 C-40.48580124 33.51884181 -40.48580124 33.51884181 -33 25 C-32.29359375 24.17371094 -31.5871875 23.34742188 -30.859375 22.49609375 C-11.2139313 0 -11.2139313 0 0 0 Z " fill="#EAEAE9" transform="translate(336,172)"/>
<path d="M0 0 C0.66 0 1.32 0 2 0 C2.4125 0.99257812 2.825 1.98515625 3.25 3.0078125 C11.17611908 21.78203645 21.55181427 41.36787618 39 53 C38.505 53.99 38.505 53.99 38 55 C20.29319966 41.23166077 8.30461908 23.7972409 0 3 C0 2.01 0 1.02 0 0 Z " fill="#EBEAE9" transform="translate(41,154)"/>
<path d="M0 0 C0 3.9404131 -1.45911204 5.54629875 -3.5625 8.875 C-13.11839213 24.90355249 -16.77404923 44.0285636 -21 62 C-21.66 62 -22.32 62 -23 62 C-20.5464295 41.94840657 -14.74302192 14.74302192 0 0 Z " fill="#EAE9E9" transform="translate(634,181)"/>
<path d="M0 0 C0.66 0 1.32 0 2 0 C1.3480926 3.62093379 0.40357622 7.00022537 -0.78515625 10.48046875 C-1.14730225 11.55055176 -1.50944824 12.62063477 -1.88256836 13.72314453 C-2.2719458 14.86638184 -2.66132324 16.00961914 -3.0625 17.1875 C-6.74578138 28.07299826 -10.20772911 39.00647981 -13.43579102 50.03588867 C-13.74444092 51.06818604 -14.05309082 52.1004834 -14.37109375 53.1640625 C-14.63849365 54.07623535 -14.90589355 54.9884082 -15.18139648 55.92822266 C-16 58 -16 58 -18 59 C-16.7836237 52.27815122 -15.16317908 45.83416577 -13.06640625 39.3359375 C-12.78780258 38.45902252 -12.50919891 37.58210754 -12.22215271 36.67861938 C-11.63718725 34.84093396 -11.04967958 33.00405595 -10.4597168 31.16796875 C-9.56308024 28.37680625 -8.67443588 25.58319703 -7.78710938 22.7890625 C-7.21400604 20.99203934 -6.64045355 19.19515934 -6.06640625 17.3984375 C-5.80380508 16.57427338 -5.54120392 15.75010925 -5.27064514 14.90097046 C-3.6530255 9.87456457 -1.89030859 4.93053432 0 0 Z " fill="#ECECEB" transform="translate(1002,82)"/>
<path d="M0 0 C0.66 0.33 1.32 0.66 2 1 C-9.90270501 15.58081364 -25.84731941 25.90814205 -44 31 C-46.95703125 31.1484375 -46.95703125 31.1484375 -49 31 C-48.67 30.34 -48.34 29.68 -48 29 C-46.16655876 28.3918635 -44.3058328 27.86558064 -42.4375 27.375 C-30.83221293 23.93167307 -20.15352005 18.68368368 -11.015625 10.6640625 C-9 9 -9 9 -6.796875 7.9609375 C-4.64263458 7.07364028 -4.64263458 7.07364028 -4 4 C-3.34 4 -2.68 4 -2 4 C-1.34 2.68 -0.68 1.36 0 0 Z " fill="#E9E9E9" transform="translate(197,192)"/>
<path d="M0 0 C2.51640924 2.26963996 3.92296016 4.49312009 5.41015625 7.52734375 C5.84263672 8.40197266 6.27511719 9.27660156 6.72070312 10.17773438 C7.16349609 11.08845703 7.60628906 11.99917969 8.0625 12.9375 C8.50916016 13.84435547 8.95582031 14.75121094 9.41601562 15.68554688 C10.24762453 17.374869 11.07675878 19.06541325 11.90258789 20.75756836 C12.44580688 21.86757202 12.44580688 21.86757202 13 23 C13.33572021 23.71486572 13.67144043 24.42973145 14.01733398 25.16625977 C14.97747869 27.1703225 14.97747869 27.1703225 17 29 C18.18771659 31.2580925 19.32835972 33.51650897 20.4375 35.8125 C22.10104113 39.23617497 23.74795321 42.60124765 25.78515625 45.82421875 C26.18605469 46.54222656 26.58695313 47.26023438 27 48 C26.67 48.66 26.34 49.32 26 50 C21.36248389 43.34861985 17.38247155 36.45981848 13.5625 29.3125 C12.99700439 28.25973877 12.43150879 27.20697754 11.84887695 26.12231445 C0 3.98456344 0 3.98456344 0 0 Z " fill="#EAEAE9" transform="translate(781,130)"/>
<path d="M0 0 C0.33 0 0.66 0 1 0 C0.42585551 5.21458287 -0.79945068 9.84525414 -2.6875 14.75 C-2.95369141 15.44810791 -3.21988281 16.14621582 -3.49414062 16.86547852 C-8.40994473 29.43692461 -15.81476506 40.34758432 -24 51 C-24.495 49.515 -24.495 49.515 -25 48 C-23.41015625 45.609375 -23.41015625 45.609375 -21.0625 42.75 C-10.99090759 29.8885037 -5.48207264 15.24976878 0 0 Z " fill="#ECEBEA" transform="translate(982,145)"/>
<path d="M0 0 C3.81746993 1.55526553 6.24524119 4.04092404 9 7 C9.95712891 7.96679688 9.95712891 7.96679688 10.93359375 8.953125 C18.14736414 16.5140822 23.57217447 25.11000805 29 34 C29.41169434 34.65049316 29.82338867 35.30098633 30.24755859 35.97119141 C31.24527506 37.60098029 32.13283166 39.29715854 33 41 C32.67 41.99 32.34 42.98 32 44 C31.71390869 43.51756836 31.42781738 43.03513672 31.13305664 42.53808594 C22.66203785 28.31205079 13.73582824 15.54555654 2.30859375 3.51953125 C0 1 0 1 0 0 Z " fill="#EAE9E8" transform="translate(748,86)"/>
<path d="M0 0 C3.33658457 2.42716557 6.30628598 4.93431598 9 8.0625 C9 8.7225 9 9.3825 9 10.0625 C7.0625 9.25 7.0625 9.25 5 8.0625 C4.505 6.5775 4.505 6.5775 4 5.0625 C2.17131715 3.97057722 2.17131715 3.97057722 0 3.0625 C-1.41776157 2.23103081 -2.83438168 1.39761297 -4.25 0.5625 C-14.19380969 -4.9366052 -23.99098949 -4.56846452 -35 -2.9375 C-35 -3.5975 -35 -4.2575 -35 -4.9375 C-22.56577643 -8.55472868 -11.10632104 -7.16357707 0 0 Z " fill="#EBEAEA" transform="translate(375,174.9375)"/>
<path d="M0 0 C6.91360699 1.43113801 13.57809745 3.32759903 20.3125 5.4375 C28.16174312 7.86543056 35.98182875 10.1894452 44 12 C44 12.66 44 13.32 44 14 C35.95186085 12.69088682 28.1593646 10.8302969 20.3125 8.625 C19.23677734 8.33367188 18.16105469 8.04234375 17.05273438 7.7421875 C10.95995912 6.04083691 5.54798339 4.04568858 0 1 C0 0.67 0 0.34 0 0 Z " fill="#EAE9E8" transform="translate(627,40)"/>
<path d="M0 0 C0.66 0 1.32 0 2 0 C-1.90176698 13.67672006 -12.75164519 24.42722001 -24.3125 32.0625 C-24.92375732 32.46952148 -25.53501465 32.87654297 -26.16479492 33.29589844 C-27.92578125 34.41015625 -27.92578125 34.41015625 -31 36 C-31.99 35.67 -32.98 35.34 -34 35 C-33.0821875 34.43152344 -32.164375 33.86304688 -31.21875 33.27734375 C-17.12986441 24.46242393 -7.30455244 15.3234302 0 0 Z " fill="#EBEAE9" transform="translate(434,0)"/>
<path d="M0 0 C0.66 0 1.32 0 2 0 C0.53390385 3.993086 -1.38575332 7.47510153 -3.5625 11.125 C-7.4207363 17.70015247 -10.69814953 24.48965052 -13.85375977 31.42626953 C-15.91846976 35.91813461 -18.1321681 39.96953354 -21 44 C-22 41 -22 41 -20.95532227 38.40307617 C-20.41447998 37.37674072 -19.8736377 36.35040527 -19.31640625 35.29296875 C-18.72166504 34.15448486 -18.12692383 33.01600098 -17.51416016 31.84301758 C-16.86400047 30.6243016 -16.21344041 29.40579915 -15.5625 28.1875 C-14.9139506 26.95694048 -14.26600106 25.72606462 -13.61865234 24.49487305 C-9.25679752 16.22864732 -4.78088939 8.03248807 0 0 Z " fill="#EAEAE9" transform="translate(245,113)"/>
<path d="M0 0 C0 0.99 0 1.98 0 3 C-2.21947637 4.62519035 -4.41036894 6.06790664 -6.75 7.5 C-17.25674696 14.21264389 -26.11010252 22.30431612 -34 32 C-34.33 31.01 -34.66 30.02 -35 29 C-24.73745235 17.03045544 -13.52149267 8.18334827 0 0 Z " fill="#ECEBEA" transform="translate(290,70)"/>
<path d="M0 0 C2.0091922 2.50923779 4.015822 5.02003915 6.0078125 7.54296875 C13.08834745 16.38710558 20.45493728 24.7749591 30 31 C29.67 31.66 29.34 32.32 29 33 C25.98315344 30.68776839 22.98763993 28.34982916 20 26 C19.39285156 25.53335938 18.78570313 25.06671875 18.16015625 24.5859375 C10.20496338 18.184347 4.12304843 9.75876022 -1 1 C-0.67 0.67 -0.34 0.34 0 0 Z " fill="#EBEAEA" transform="translate(811,183)"/>
<path d="M0 0 C0.66 0.33 1.32 0.66 2 1 C1.69296143 1.6391333 1.38592285 2.2782666 1.06958008 2.93676758 C-0.3506196 5.89478348 -1.7690665 8.85363679 -3.1875 11.8125 C-3.67025391 12.81732422 -4.15300781 13.82214844 -4.65039062 14.85742188 C-7.84974372 21.53526626 -10.96307607 28.24674149 -14 35 C-14.66 34.34 -15.32 33.68 -16 33 C-11.13875137 21.71311156 -5.9610406 10.74889767 0 0 Z " fill="#EBEBEA" transform="translate(1019,46)"/>
<path d="M0 0 C1.38276993 2.62156222 2.42476689 5.12275642 3.21875 7.9765625 C3.53259644 9.09961792 3.53259644 9.09961792 3.8527832 10.24536133 C4.06636475 11.03064209 4.27994629 11.81592285 4.5 12.625 C4.83100708 13.83289185 4.83100708 13.83289185 5.16870117 15.06518555 C9.13932481 29.74244423 9.13932481 29.74244423 9 37 C8.34 36.67 7.68 36.34 7 36 C6.13037109 33.33544922 6.13037109 33.33544922 5.2734375 29.8046875 C4.9640625 28.53109375 4.6546875 27.2575 4.3359375 25.9453125 C4.09955566 24.94226074 4.09955566 24.94226074 3.85839844 23.91894531 C3.3811897 21.90117178 2.88698756 19.88813581 2.390625 17.875 C0.92568639 11.75672698 -0.18847066 6.32233407 0 0 Z " fill="#EBEAE9" transform="translate(399,217)"/>
<path d="M0 0 C2.58966331 2.39045844 4.73415815 4.91944327 6.8125 7.75 C11.53030027 14.127328 16.46467466 19.85572204 22.71484375 24.7734375 C23.13894531 25.17820312 23.56304688 25.58296875 24 26 C24 26.66 24 27.32 24 28 C24.639375 28.28875 25.27875 28.5775 25.9375 28.875 C28 30 28 30 29 32 C24.246656 29.83365295 20.80800186 26.51507864 17 23 C16.35804688 22.4121875 15.71609375 21.824375 15.0546875 21.21875 C8.95979029 15.39528546 4.01673553 8.74380841 -1 2 C-0.67 1.34 -0.34 0.68 0 0 Z " fill="#EAEAE9" transform="translate(766,286)"/>
<path d="M0 0 C3.52453897 1.17484632 4.02329183 2.10284815 6.125 5.0625 C11.95393071 12.76108773 18.67081887 18.16461667 27.12890625 22.7734375 C27.74636719 23.17820312 28.36382813 23.58296875 29 24 C29 24.66 29 25.32 29 26 C24.31367439 24.42295735 20.65750333 21.86200034 16.6875 19 C16.04232422 18.54882812 15.39714844 18.09765625 14.73242188 17.6328125 C13.11498745 16.47579063 11.55206756 15.24333423 10 14 C10 13.34 10 12.68 10 12 C9.34 12 8.68 12 8 12 C6.55699673 10.24115867 5.19308786 8.41679923 3.875 6.5625 C3.15054688 5.55316406 2.42609375 4.54382813 1.6796875 3.50390625 C0 1 0 1 0 0 Z " fill="#EAEAE9" transform="translate(595,13)"/>
<path d="M0 0 C4.20429969 3.65828675 5.35930981 8.6981958 7.1875 13.8125 C7.55552734 14.79798828 7.92355469 15.78347656 8.30273438 16.79882812 C10.05649354 21.6436285 11.54235726 25.76314057 11 31 C7.8319636 26.2479454 6.29053695 20.85751741 4.375 15.5 C3.95476563 14.34628906 3.53453125 13.19257812 3.1015625 12.00390625 C2.70453125 10.89917969 2.3075 9.79445313 1.8984375 8.65625 C1.53411621 7.64369141 1.16979492 6.63113281 0.79443359 5.58789062 C0 3 0 3 0 0 Z " fill="#EBEAE9" transform="translate(12,63)"/>
<path d="M0 0 C4.31289454 3.56829167 6.00085957 7.90982922 8.125 12.9375 C8.47175781 13.73607422 8.81851562 14.53464844 9.17578125 15.35742188 C10.13096529 17.56605624 11.06769769 19.78163428 12 22 C12.40992188 22.95003906 12.81984375 23.90007812 13.2421875 24.87890625 C14 27 14 27 14 30 C13.34 30 12.68 30 12 30 C10.50434909 27.21695338 9.58074676 24.62001898 8.8125 21.5625 C7.17535495 15.83249233 4.37866019 10.91448427 1.42578125 5.78515625 C0 3 0 3 0 0 Z " fill="#EBEBEA" transform="translate(385,186)"/>
<path d="M0 0 C0.66 0.33 1.32 0.66 2 1 C1.30132812 1.75925781 0.60265625 2.51851563 -0.1171875 3.30078125 C-1.03656422 4.30459053 -1.95582921 5.30850215 -2.875 6.3125 C-3.33519531 6.81201172 -3.79539063 7.31152344 -4.26953125 7.82617188 C-6.38606608 10.14209043 -8.25526383 12.38289574 -10 15 C-10.66 15 -11.32 15 -12 15 C-12.33 15.99 -12.66 16.98 -13 18 C-14.84765625 19.60546875 -14.84765625 19.60546875 -17.0625 21.1875 C-17.79597656 21.71730469 -18.52945313 22.24710937 -19.28515625 22.79296875 C-19.85105469 23.19128906 -20.41695312 23.58960938 -21 24 C-19.38972361 19.90111463 -16.42193516 17.23786898 -13.3125 14.25 C-8.64344147 9.68189409 -4.19109171 5.01750417 0 0 Z " fill="#EAEAEA" transform="translate(248,285)"/>
<path d="M0 0 C0.66 0.33 1.32 0.66 2 1 C-15.27272727 16 -15.27272727 16 -22 16 C-22 15.34 -22 14.68 -22 14 C-21.0821875 13.49210938 -20.164375 12.98421875 -19.21875 12.4609375 C-12.47921051 8.69369832 -5.99192792 4.91263655 0 0 Z " fill="#E8E8E8" transform="translate(945,206)"/>
<path d="M0 0 C-0.79664063 0.32613281 -1.59328125 0.65226562 -2.4140625 0.98828125 C-9.06721571 3.72612879 -9.06721571 3.72612879 -15.5625 6.8125 C-18 8 -18 8 -21 8 C-21 7.34 -21 6.68 -21 6 C-18.25538312 4.79848104 -15.50547873 3.61361897 -12.75 2.4375 C-11.97269531 2.09525391 -11.19539063 1.75300781 -10.39453125 1.40039062 C-9.64042969 1.08134766 -8.88632812 0.76230469 -8.109375 0.43359375 C-7.07248535 -0.01415405 -7.07248535 -0.01415405 -6.01464844 -0.47094727 C-3.64929576 -1.09209599 -2.28986553 -0.77451334 0 0 Z " fill="#EDECEC" transform="translate(313,63)"/>
<path d="M0 0 C0.66 0.33 1.32 0.66 2 1 C-1.63 7.6 -5.26 14.2 -9 21 C-9.66 20.67 -10.32 20.34 -11 20 C-7.69032985 13.11588609 -3.89654239 6.56720628 0 0 Z " fill="#E9E9E8" transform="translate(283,227)"/>
<path d="M0 0 C0.33 0.66 0.66 1.32 1 2 C-0.59910868 3.00806851 -2.20448262 4.00620385 -3.8125 5 C-5.15248047 5.8353125 -5.15248047 5.8353125 -6.51953125 6.6875 C-9 8 -9 8 -12 8 C-4.88610478 1.48063781 -4.88610478 1.48063781 0 0 Z " fill="#EAE9E9" transform="translate(648,170)"/>
<path d="M0 0 C0.66 0 1.32 0 2 0 C6.09326923 6.45 6.09326923 6.45 5.62109375 9.234375 C5.41613281 9.81703125 5.21117187 10.3996875 5 11 C4.16151196 9.54462432 3.32936066 8.08559627 2.5 6.625 C1.80390625 5.40683594 1.80390625 5.40683594 1.09375 4.1640625 C0 2 0 2 0 0 Z " fill="#EAE9E7" transform="translate(2,43)"/>
<path d="M0 0 C-3.69172595 3.53790403 -7.09390595 3.59115883 -12 4 C-12 3.34 -12 2.68 -12 2 C-7.8803623 0.70756464 -4.33168317 -0.26252625 0 0 Z " fill="#EBEBEA" transform="translate(387,41)"/>
<path d="M0 0 C1.65 0 3.3 0 5 0 C5 0.33 5 0.66 5 1 C3.35 1 1.7 1 0 1 C0 0.67 0 0.34 0 0 Z " fill="#FFFFFF" transform="translate(509,335)"/>
<path d="M0 0 C3 1 3 1 3 1 Z " fill="#FFFFFF" transform="translate(504,335)"/>
<path d="M0 0 C0.66 0.66 1.32 1.32 2 2 C1.34 2 0.68 2 0 2 C0 1.34 0 0.68 0 0 Z " fill="#FFFFFF" transform="translate(730,227)"/>
<path d="M0 0 C3 1 3 1 3 1 Z " fill="#FFFFFF" transform="translate(367,175)"/>
<path d="M0 0 C2 1 2 1 2 1 Z " fill="#FFFFFF" transform="translate(825,335)"/>
<path d="M0 0 C2 1 2 1 2 1 Z " fill="#FFFFFF" transform="translate(516,335)"/>
<path d="M0 0 C2 1 2 1 2 1 Z " fill="#DFDFDF" transform="translate(180,335)"/>
<path d="M0 0 C2 1 2 1 2 1 Z " fill="#FFFFFF" transform="translate(746,259)"/>
<path d="" fill="#FFFFFF" transform="translate(0,0)"/>
<path d="" fill="#FFFFFF" transform="translate(0,0)"/>
<path d="M0 0 C2 1 2 1 2 1 Z " fill="#FFFFFF" transform="translate(922,218)"/>
<path d="" fill="#FFFFFF" transform="translate(0,0)"/>
<path d="" fill="#FFFFFF" transform="translate(0,0)"/>
<path d="M0 0 C2 1 2 1 2 1 Z " fill="#FFFFFF" transform="translate(400,32)"/>
<path d="" fill="#FFFFFF" transform="translate(0,0)"/>
<path d="" fill="#FFFFFF" transform="translate(0,0)"/>
<path d="" fill="#FFFFFF" transform="translate(0,0)"/>
<path d="" fill="#FFFFFF" transform="translate(0,0)"/>
<path d="" fill="#FFFFFF" transform="translate(0,0)"/>
<path d="" fill="#FFFFFF" transform="translate(0,0)"/>
<path d="" fill="#FFFFFF" transform="translate(0,0)"/>
<path d="" fill="#CCCCCC" transform="translate(0,0)"/>
<path d="" fill="#FFFFFF" transform="translate(0,0)"/>
<path d="" fill="#FFFFFF" transform="translate(0,0)"/>
<path d="" fill="#FFFFFF" transform="translate(0,0)"/>
<path d="" fill="#FFFFFF" transform="translate(0,0)"/>
<path d="" fill="#FFFFFF" transform="translate(0,0)"/>
<path d="" fill="#FFFFFF" transform="translate(0,0)"/>
<path d="" fill="#FFFFFF" transform="translate(0,0)"/>
<path d="" fill="#FFFFFF" transform="translate(0,0)"/>
<path d="" fill="#FFFFFF" transform="translate(0,0)"/>
<path d="" fill="#FFFFFF" transform="translate(0,0)"/>
<path d="" fill="#FFFFFF" transform="translate(0,0)"/>
<path d="" fill="#FFFFFF" transform="translate(0,0)"/>
<path d="" fill="#FFFFFF" transform="translate(0,0)"/>
<path d="" fill="#FFFFFF" transform="translate(0,0)"/>
<path d="" fill="#FFFFFF" transform="translate(0,0)"/>
<path d="" fill="#FFFFFF" transform="translate(0,0)"/>
<path d="" fill="#FFFFFF" transform="translate(0,0)"/>
<path d="" fill="#FFFFFF" transform="translate(0,0)"/>
<path d="" fill="#FFFFFF" transform="translate(0,0)"/>
<path d="" fill="#FFFFFF" transform="translate(0,0)"/>
<path d="" fill="#FFFFFF" transform="translate(0,0)"/>
<path d="" fill="#FFFFFF" transform="translate(0,0)"/>
<path d="" fill="#FFFFCC" transform="translate(0,0)"/>
<path d="" fill="#FFFFFF" transform="translate(0,0)"/>
<path d="" fill="#FFFFFF" transform="translate(0,0)"/>
<path d="" fill="#FFFFFF" transform="translate(0,0)"/>
<path d="" fill="#FFFFFF" transform="translate(0,0)"/>
<path d="" fill="#FFFFFF" transform="translate(0,0)"/>
<path d="" fill="#FFFFFF" transform="translate(0,0)"/>
<path d="" fill="#FFFFFF" transform="translate(0,0)"/>
<path d="" fill="#FFFFFF" transform="translate(0,0)"/>
<path d="" fill="#FFFFFF" transform="translate(0,0)"/>
<path d="" fill="#FFFFFF" transform="translate(0,0)"/>
<path d="" fill="#FFFFFF" transform="translate(0,0)"/>
<path d="" fill="#FFFFFF" transform="translate(0,0)"/>
<path d="" fill="#FFFFFF" transform="translate(0,0)"/>
<path d="" fill="#FFFFFF" transform="translate(0,0)"/>
<path d="" fill="#FFFFFF" transform="translate(0,0)"/>
<path d="" fill="#FFFFFF" transform="translate(0,0)"/>
<path d="" fill="#FFFFFF" transform="translate(0,0)"/>
<path d="" fill="#FFFFFF" transform="translate(0,0)"/>
<path d="" fill="#FFFFFF" transform="translate(0,0)"/>
<path d="" fill="#FFFFFF" transform="translate(0,0)"/>
<path d="" fill="#FFFFFF" transform="translate(0,0)"/>
<path d="" fill="#FFFFFF" transform="translate(0,0)"/>
<path d="" fill="#FFFFFF" transform="translate(0,0)"/>
<path d="" fill="#FFFFFF" transform="translate(0,0)"/>
<path d="" fill="#FFFFFF" transform="translate(0,0)"/>
<path d="" fill="#FFFFFF" transform="translate(0,0)"/>
<path d="" fill="#FFFFFF" transform="translate(0,0)"/>
<path d="" fill="#FFFFFF" transform="translate(0,0)"/>
<path d="" fill="#FFFFFF" transform="translate(0,0)"/>
<path d="" fill="#FFFFFF" transform="translate(0,0)"/>
<path d="" fill="#FFFFFF" transform="translate(0,0)"/>
<path d="" fill="#FFFFFF" transform="translate(0,0)"/>
<path d="" fill="#FFFFFF" transform="translate(0,0)"/>
<path d="" fill="#FFFFFF" transform="translate(0,0)"/>
<path d="" fill="#FFFFFF" transform="translate(0,0)"/>
<path d="" fill="#FFFFFF" transform="translate(0,0)"/>
<path d="" fill="#FFFFFF" transform="translate(0,0)"/>
<path d="" fill="#FFFFFF" transform="translate(0,0)"/>
<path d="" fill="#FFFFFF" transform="translate(0,0)"/>
<path d="" fill="#FFFFFF" transform="translate(0,0)"/>
<path d="" fill="#FFFFFF" transform="translate(0,0)"/>
<path d="" fill="#FFFFFF" transform="translate(0,0)"/>
<path d="" fill="#FFFFFF" transform="translate(0,0)"/>
<path d="" fill="#FFFFFF" transform="translate(0,0)"/>
<path d="" fill="#FFFFFF" transform="translate(0,0)"/>
<path d="" fill="#FFFFFF" transform="translate(0,0)"/>
<path d="" fill="#FFFFFF" transform="translate(0,0)"/>
<path d="" fill="#FFFFFF" transform="translate(0,0)"/>
<path d="" fill="#FFFFFF" transform="translate(0,0)"/>
<path d="" fill="#FFFFFF" transform="translate(0,0)"/>
<path d="" fill="#FFFFFF" transform="translate(0,0)"/>
<path d="" fill="#FFFFFF" transform="translate(0,0)"/>
</svg>
